<?xml version="1.0" encoding="UTF-8" standalone="no"?>
<svg
   id="svg"
   width="201.50719"
   height="215.35942"
   viewBox="0 0 201.50718 215.35942"
   version="1.1"
   sodipodi:docname="logo.svg"
   inkscape:version="1.3.2 (091e20e, 2023-11-25, custom)"
   xmlns:inkscape="http://www.inkscape.org/namespaces/inkscape"
   xmlns:sodipodi="http://sodipodi.sourceforge.net/DTD/sodipodi-0.dtd"
   xmlns="http://www.w3.org/2000/svg"
   xmlns:svg="http://www.w3.org/2000/svg">
  <defs
     id="defs1" />
  <sodipodi:namedview
     id="namedview1"
     pagecolor="#6b6b6b"
     bordercolor="#000000"
     borderopacity="0.25"
     inkscape:showpageshadow="2"
     inkscape:pageopacity="0.0"
     inkscape:pagecheckerboard="true"
     inkscape:deskcolor="#d1d1d1"
     showgrid="false"
     inkscape:zoom="1.423506"
     inkscape:cx="80.43521"
     inkscape:cy="170.0028"
     inkscape:window-width="1450"
     inkscape:window-height="884"
     inkscape:window-x="286"
     inkscape:window-y="71"
     inkscape:window-maximized="0"
     inkscape:current-layer="svg"
     showborder="true" />
  <g
     id="svgg"
     transform="translate(-99.185323,-26.96696)"
     style="fill:#ffffff">
    <path
       id="path0"
       d="m 194.925,29.842 c -20.539,14.974 -53.716,26.063 -85.258,28.497 -4.707,0.363 -8.958,0.801 -9.448,0.972 -3.285,1.151 1.845,58.627 7.183,80.467 9.758,39.93 36.638,72.804 78.371,95.849 15.415,8.512 13.288,8.244 23.34,2.937 46.449,-24.522 75.088,-59.335 84.396,-102.589 4.796,-22.293 9.149,-75.67 6.251,-76.667 -0.478,-0.164 -4.72,-0.608 -9.427,-0.987 -31.514,-2.535 -61.747,-12.481 -84.192,-27.695 -7.056,-4.783 -5.846,-4.699 -11.216,-0.784 m 11.074,14.8 c 21.423,13.252 45.786,21.042 79.519,25.426 l 3.109,0.404 -0.405,11.198 c -1.479,40.808 -8.567,69.539 -22.782,92.34 -12.716,20.397 -38.352,42.583 -62.678,54.243 l -2.943,1.411 -7.199,-3.99 C 136.597,194.629 114.575,155.333 111.787,81.434 l -0.413,-10.963 3.108,-0.4 c 33.907,-4.363 55.823,-11.373 79.78,-25.517 6.788,-4.008 5.094,-4.021 11.737,0.088 m -9.169,24.826 c -13.185,8.319 -37.303,16.934 -53.851,19.236 -2.704,0.376 -5.171,0.841 -5.484,1.035 -0.83,0.513 -0.7,6.61 0.399,18.651 0.74,8.114 0.798,11.043 0.246,12.442 -5.598,14.201 -0.267,32.102 11.776,39.546 1.166,0.72 4.067,4.082 6.449,7.47 8.177,11.636 22.683,24.764 36.843,33.341 7.132,4.32 6.657,4.306 13.155,0.381 14.998,-9.059 28.172,-20.664 36.291,-31.97 3.887,-5.413 6.154,-7.845 11.643,-12.493 8.71,-7.375 12.38,-22.231 8.403,-34.016 -1.598,-4.736 -1.624,-5.07 -0.968,-12.473 2.007,-22.641 2.742,-20.445 -7.503,-22.419 -18.473,-3.56 -37.034,-10.298 -50.191,-18.221 -4.234,-2.549 -4.002,-2.532 -7.208,-0.51 m -22.82,34.485 c 7.627,1.24 16.986,7.628 23.971,16.363 l 1.672,2.091 6.513,-6.59 c 10.102,-10.222 19.049,-13.766 30.337,-12.019 36.19,5.602 31.554,58.801 -5.124,58.801 h -8.558 l -4.952,-2.42 c -4.815,-2.353 -12.388,-8.898 -16.191,-13.993 l -1.368,-1.833 -5.098,5.45 c -14.746,15.76 -33.912,18.011 -47.106,5.532 -21.886,-20.698 -3.97,-56.235 25.904,-51.382 m -10.143,13.28 c -18.886,4.598 -14.511,32.75 5.071,32.634 7.457,-0.044 10.797,-2.164 18.914,-12.005 l 3.542,-4.295 -1.379,-1.966 c -7.828,-11.161 -17.497,-16.474 -26.148,-14.368 m 61.623,0.456 c -3.554,1.233 -7.135,4.24 -12.842,10.783 l -4.122,4.727 1.329,1.866 c 11.144,15.651 24.291,19.395 34.012,9.688 12.292,-12.276 -1.681,-32.854 -18.377,-27.064"
       stroke="none"
       fill="#000000"
       fill-rule="evenodd"
       sodipodi:nodetypes="cccccccccccccccccccccccccccccccscccccccccccccsccccccccccccccccccc"
       style="fill:#ffffff" />
  </g>
</svg>
